<svg xmlns="http://www.w3.org/2000/svg" version="1.1" xmlns:xlink="http://www.w3.org/1999/xlink" xmlns:svgjs="http://svgjs.com/svgjs" width="100%" height="100%" viewBox="0 0 1000 600"><rect width="1000" height="600" x="0" y="0" fill="#4a171e"/><g><circle r="166.66666666666666" cx="328.52895609537757" cy="350.75117062744005" fill="#E2V144" transform="matrix(0.7722616292684141,0,0,0.7722616292684139,0,29.128351938719277)"/><path d="M331.14258453546387 425.75118596106574L331.14258453546387 425.75118596106574Q310.42288876333305 425.75118596106574 296.369859272546 417.72088339490165Q282.31682978175894 409.69058082873767 275.0819817150734 392.9102787683099Q267.84713364838785 376.12997670788224 267.84713364838785 350.75119029594873L267.84713364838785 350.75119029594873Q267.84713364838785 325.41028266970466 275.0819817150734 308.78149575203474Q282.31682978175894 292.11483004867546 296.6350107723722 283.9330123397536Q310.9531917629854 275.7511946308317 331.9380390349424 275.7511946308317L331.9380390349424 275.7511946308317Q346.6728866681396 275.7511946308317 357.4683405896337 279.5769519854665Q368.22591572543837 283.40270934010124 375.3092486493661 290.7511937638551Q382.3925815732938 298.1375569732985 385.8016722853446 308.47846546651914Q389.21076299739536 318.85725274542926 389.21076299739536 332.2284640938062L389.21076299739536 332.2284640938062L364.9683401561454 332.2284640938062Q364.9683401561454 319.6905860305973 361.5592494440947 311.62240467874375Q358.1501587320439 303.5921021125797 350.76379552260056 299.61482961518715Q343.41531109884664 295.6754359034841 331.40773603529004 295.6754359034841L331.40773603529004 295.6754359034841Q319.40016097173344 295.6754359034841 310.6880402631592 300.97846590000745Q301.9380407688956 306.3193746822203 297.3168289147823 317.75876796043514Q292.69561706066906 329.2360400243394 292.69561706066906 348.0239177263081L292.69561706066906 348.0239177263081L292.69561706066906 353.781493151105Q292.69561706066906 371.508764853769 297.16531377202455 383.21330963181Q301.6728892690694 394.9557331955404 310.42288876333305 400.41027833482167Q319.13500947190727 405.8648234741029 331.6728875351162 405.8648234741029L331.6728875351162 405.8648234741029Q343.945614098499 405.8648234741029 351.4456136650107 401.5087631198158Q358.94561323152243 397.11482397983923 362.35470394357316 388.93300627091736Q365.76379465562394 380.7511885619955 365.76379465562394 369.3117952837807L365.76379465562394 369.3117952837807L389.21076299739536 369.3117952837807Q389.21076299739536 381.3193703473373 385.8016722853446 391.660278840558Q382.3925815732938 402.0390661194681 375.3092486493661 409.69058082873767Q368.22591572543837 417.3042167523177 357.3168254468759 421.54664074953644Q346.4077351683135 425.75118596106574 331.14258453546387 425.75118596106574Z " fill="#4a171e" transform="matrix(0.7722616292684141,0,0,0.7722616292684139,0,29.128351938719277)"/><path d="M645.479060727466 425.7511827282847L645.479060727466 425.7511827282847Q624.0504901021188 425.7511827282847 609.1411936088217 417.89970909968525Q594.260241785664 410.04823547108583 586.3804234869251 394.0334968423541Q578.5289498583256 378.01875821362233 578.5289498583256 353.3022058521108L578.5289498583256 353.3022058521108Q578.5289498583256 316.7942707126303 596.301058035697 298.82374984428355Q614.044821542929 280.8532289759368 645.6774734184415 280.8532289759368L645.6774734184415 280.8532289759368Q663.6479942867883 280.8532289759368 677.5085379849295 286.6922310246425Q691.3974263532101 292.5028884032089 699.2488999818096 304.23758184089905Q707.100373610409 315.9722752785892 707.100373610409 333.7160387858212L707.100373610409 333.7160387858212L687.5142065441194 333.7160387858212Q687.5142065441194 321.47114128562276 682.2987872384793 313.5062889764659Q677.1117126029786 305.56978133744843 667.7296267868544 301.57318284780035Q658.3191963005908 297.60492902829156 645.6774734184415 297.60492902829156L645.6774734184415 297.60492902829156Q630.9949342862592 297.60492902829156 620.3656829840036 303.3022077263006Q609.7647763518873 309.0278310944489 604.2375656747145 320.96093722311446Q598.738699667681 332.89404335178006 598.738699667681 351.6865596541679L598.738699667681 351.6865596541679L598.738699667681 355.9666048452095Q598.738699667681 374.5323637864825 604.2375656747145 386.2670572241727Q609.7647763518873 398.00175066186284 620.2806489735856 403.52896133903573Q630.7681769251444 409.0278273460693 645.6774734184415 409.0278273460693L645.6774734184415 409.0278273460693Q658.744366352681 409.0278273460693 668.2398308493626 405.1446075369786Q677.7069506759049 401.26138772788784 682.922369981545 393.211501408313Q688.1377892871851 385.16161508873813 688.1377892871851 372.91671758853965L688.1377892871851 372.91671758853965L707.100373610409 372.91671758853965Q707.100373610409 391.05730647772253 699.0504872908341 402.7069659049946Q690.9722563011198 414.3282806621274 677.1117126029786 420.0539040302757Q663.222824234698 425.7511827282847 645.479060727466 425.7511827282847ZM748.7386940451115 423.31354109630075L730.7681731767648 423.31354109630075L730.7681731767648 315.9722752785892L745.280644288111 315.9722752785892L746.8962904860539 333.7160387858212L748.3418686631605 333.7160387858212Q749.9575148611034 328.6139981607385 752.8203265451776 324.0221615981641Q755.6831382292518 319.4303250355897 760.586766163359 316.4824793410975Q765.4620494273269 313.5062889764659 772.6049063024427 313.5062889764659L772.6049063024427 313.5062889764659Q775.6661306774922 313.5062889764659 778.2171509900336 314.01649303897415Q780.7681713025748 314.52669710148245 782.0153367887062 315.1502798445481L782.0153367887062 315.1502798445481L782.0153367887062 331.6752225357881L775.2693052955414 331.6752225357881Q768.3248611114011 331.6752225357881 763.3361991668758 334.027830157354Q758.3191925522111 336.3804377789199 755.0595554861861 340.66048296996144Q751.799918420161 344.94052816100304 750.2693062326363 350.8645642201268Q748.7386940451115 356.78860027925055 748.7386940451115 363.5062871022761L748.7386940451115 363.5062871022761L748.7386940451115 423.31354109630075ZM816.4824556781537 295.76252546923394L798.5402794799462 295.76252546923394L798.5402794799462 275.75118835085414L816.4824556781537 275.75118835085414L816.4824556781537 295.76252546923394ZM816.4824556781537 423.31354109630075L798.5402794799462 423.31354109630075L798.5402794799462 315.9722752785892L816.4824556781537 315.9722752785892L816.4824556781537 423.31354109630075ZM885.2749701063516 425.7511827282847L885.2749701063516 425.7511827282847Q869.7704355401281 425.7511827282847 859.25456291843 419.7421126587429Q848.7386902967319 413.7330425892011 843.3248583001164 401.17635371746985Q837.9110263035009 388.61966484573855 837.9110263035009 369.6287358523753L837.9110263035009 369.6287358523753Q837.9110263035009 350.66615152915136 843.3248583001164 338.2228413379775Q848.7386902967319 325.7511864766643 859.4529756094055 319.62873772656513Q870.1672609220791 313.5062889764659 885.8702081792778 313.5062889764659L885.8702081792778 313.5062889764659Q896.8962848634844 313.5062889764659 904.9745158531987 316.3691006605401Q913.0244021727735 319.2319123446142 918.3248554888316 324.7307783516478Q923.6253088048898 330.2579890288207 926.1763291174311 337.99608397686274Q928.7273494299724 345.7625235950441 928.7273494299724 355.76819215423404L928.7273494299724 355.76819215423404L910.5867605407896 355.76819215423404Q910.5867605407896 346.3861063381098 908.0357402282482 340.3486915984286Q905.4847199157068 334.3396215288868 899.9575092385339 331.36343116425525Q894.4586432315004 328.4155854697631 885.4733827973271 328.4155854697631L885.4733827973271 328.4155854697631Q876.4881223631537 328.4155854697631 869.9688482311036 332.3838392892718Q863.4212294289141 336.3804377789199 859.9631796719136 344.94052816100304Q856.5051299149131 353.52896321322555 856.5051299149131 367.58791960234225L856.5051299149131 367.58791960234225L856.5051299149131 371.89630946352315Q856.5051299149131 385.16161508873813 859.8498009913562 393.92011816179667Q863.2228167379387 402.7069659049946 869.7704355401281 406.7885984050607Q876.2897096721782 410.8702309051269 885.6717954883025 410.8702309051269L885.6717954883025 410.8702309051269Q894.8554686134512 410.8702309051269 900.4677133010423 407.61059383910185Q906.0799579886332 404.32261210293746 908.6309783011745 398.2001633528383Q911.1819986137159 392.0777146027391 911.1819986137159 383.5176242206559L911.1819986137159 383.5176242206559L928.7273494299724 383.5176242206559Q928.7273494299724 392.50288465482924 926.1763291174311 400.24097960287133Q923.6253088048898 408.0074192210527 918.3248554888316 413.7330425892011Q913.0244021727735 419.43032128721006 904.8611371726413 422.60492434281707Q896.6978721725089 425.7511827282847 885.2749701063516 425.7511827282847ZM1031.3917446746914 423.31354109630075L942.616237798253 423.31354109630075L942.616237798253 413.7330425892011L1002.4234917922777 331.0799844628618L946.8962829892946 331.0799844628618L946.8962829892946 315.9722752785892L1028.1321076086665 315.9722752785892L1028.1321076086665 325.35436109471345L968.1264409236663 408.2058319120282L1031.3917446746914 408.2058319120282L1031.3917446746914 423.31354109630075ZM1133.035731794394 423.31354109630075L1044.2602249179554 423.31354109630075L1044.2602249179554 413.7330425892011L1104.0391342418407 331.0799844628618L1048.5402701089972 331.0799844628618L1048.5402701089972 315.9722752785892L1129.7477500582295 315.9722752785892L1129.7477500582295 325.35436109471345L1069.7704280433688 408.2058319120282L1133.035731794394 408.2058319120282L1133.035731794394 423.31354109630075Z " fill="#E2V144" transform="matrix(0.7722616292684141,0,0,0.7722616292684139,0,29.128351938719277)"/></g></svg>